<svg enable-background="new 0 0 55 55" height="512" viewBox="0 0 55 55" width="512" xmlns="http://www.w3.org/2000/svg"><path d="m49 0c-3.309 0-6 2.691-6 6 0 1.035.263 2.009.726 2.86l-9.829 9.829c-1.355-1.055-3.051-1.689-4.897-1.689s-3.542.634-4.898 1.688l-7.669-7.669c.352-.595.567-1.279.567-2.019 0-2.206-1.794-4-4-4s-4 1.794-4 4 1.794 4 4 4c.74 0 1.424-.215 2.019-.567l7.669 7.669c-1.054 1.356-1.688 3.052-1.688 4.898s.634 3.542 1.688 4.897l-12.664 12.665c-1.066-.967-2.475-1.562-4.024-1.562-3.309 0-6 2.691-6 6s2.691 6 6 6 6-2.691 6-6c0-1.035-.263-2.009-.726-2.86l12.829-12.829c1.106.86 2.44 1.436 3.898 1.619v10.16c-2.833.478-5 2.942-5 5.91 0 3.309 2.691 6 6 6s6-2.691 6-6c0-2.967-2.167-5.431-5-5.91v-10.16c1.458-.183 2.792-.759 3.898-1.619l7.669 7.669c-.353.596-.568 1.28-.568 2.02 0 2.206 1.794 4 4 4s4-1.794 4-4-1.794-4-4-4c-.74 0-1.424.215-2.019.567l-7.669-7.669c1.054-1.356 1.688-3.052 1.688-4.898s-.634-3.542-1.688-4.897l9.665-9.665c1.065.967 2.474 1.562 4.023 1.562 3.309 0 6-2.691 6-6s-2.691-6-6-6zm-38 9c0-1.103.897-2 2-2s2 .897 2 2-.897 2-2 2-2-.897-2-2zm-5 42c-2.206 0-4-1.794-4-4s1.794-4 4-4 4 1.794 4 4-1.794 4-4 4zm27-2c0 2.206-1.794 4-4 4s-4-1.794-4-4 1.794-4 4-4 4 1.794 4 4zm-4-18c-3.309 0-6-2.691-6-6s2.691-6 6-6 6 2.691 6 6-2.691 6-6 6zm18 10c0 1.103-.897 2-2 2s-2-.897-2-2 .897-2 2-2 2 .897 2 2zm2-31c-2.206 0-4-1.794-4-4s1.794-4 4-4 4 1.794 4 4-1.794 4-4 4z" fill="#fff"/></svg>